# xmcd
#
# Track frame offsets:
#	150
#	19787
#	43787
#	61475
#	80625
#	107175
#	127887
#	148787
#	177625
#	198425
#	220037
#	236350
#
# Disc length: 3373 seconds
#
# Revision: 7
# Processed by: cddbd v1.5.2PL0 Copyright (c) Steve Scherf et al.
# Submitted via: EZCDAudioConverter 7.1.5.1
#
DISCID=ad0d2b0c
DTITLE=孟庭苇 - 钻石金选集 1990~1994（下）
DYEAR=1994
DGENRE=
TTITLE0=风中有朵雨做的云
TTITLE1=谁的眼泪在飞
TTITLE2=往事
TTITLE3=紫浣花
TTITLE4=你听海是不是在笑
TTITLE5=走在雨中
TTITLE6=无声的雨
TTITLE7=红雨
TTITLE8=雨饼干说话的人
TTITLE9=哑哑与亚亚
TTITLE10=野百合也有春天
TTITLE11=爱你后才知道如何爱你（双飞雁）
EXTD=
EXTT0=
EXTT1=
EXTT2=
EXTT3=
EXTT4=
EXTT5=
EXTT6=
EXTT7=
EXTT8=
EXTT9=
EXTT10=
EXTT11=
PLAYORDER=
